<svg id="Layer_1" data-name="Layer 1" xmlns="http://www.w3.org/2000/svg" xmlns:xlink="http://www.w3.org/1999/xlink" viewBox="0 0 507.44 217.52"><defs><style>.cls-1{fill:none;}.cls-2{clip-path:url(#clip-path);}.cls-3{fill:#004892;}</style><clipPath id="clip-path" transform="translate(-44.32 -39.79)"><rect class="cls-1" x="44.32" y="39.79" width="507.44" height="217.52"/></clipPath></defs><g class="cls-2"><path class="cls-3" d="M325.11,147.8H335a6.15,6.15,0,0,0,6.19-6.27,6.34,6.34,0,0,0-6.15-6.53h-10Zm32.6,8.17c3.17,1.87,5,10.65,5,10.65l2.63,11.47H341.41a29.58,29.58,0,0,1-1.58-4.8c-.52-2.39-2.63-11.73-5.78-13.6s-8.94-.79-8.94-.79v19.19h-25.5V122.64h44.67c9.94,0,18,7,18,15.6,0,6.82-5.06,12.62-12.11,14.74a33.86,33.86,0,0,1,7.57,3" transform="translate(-44.32 -39.79)"/><path class="cls-3" d="M245.14,150.5c0,9,6,16.26,12,16.26s12-7.28,12-16.26-6-16.26-12-16.26-12,7.27-12,16.26m-24.95.89c0-16.55,15.87-30,36.92-30s36.94,13.44,36.94,30-15.87,30-36.94,30-36.92-13.43-36.92-30" transform="translate(-44.32 -39.79)"/></g><path class="cls-3" d="M464.46,155.79,457.92,136l-6.34,19.76ZM420.55,179l20.24-55.19H477.6L496.79,179H469.71l-2.36-7.48H448.94L445.52,179Z" transform="translate(-44.32 -39.79)"/><polygon class="cls-3" points="321.54 101.08 321.54 83.75 387.28 83.75 387.28 101.08 367.29 101.08 367.29 139.2 342.06 139.2 342.06 101.08 321.54 101.08"/><g class="cls-2"><path class="cls-3" d="M216.78,175.51C206,179,193.36,182,180.61,182c-21.06,0-36.94-14-36.94-30.6s15.88-30,36.94-30c16.86,0,33.55,10.41,35.11,20.53l-24.17,0c-.52-3.42-3.42-4.22-9.11-4.22-5.95,0-11.95,6.08-11.95,15.06s6,15.35,12,15.35h9.31l.11-8.56H181.29V147.27h35.49Z" transform="translate(-44.32 -39.79)"/></g><rect class="cls-3" x="69.94" y="83.76" width="24.71" height="55.44"/><polygon class="cls-3" points="82.95 62.69 68.1 70.81 82.95 79.35 97.8 70.81 82.95 62.69"/><g class="cls-2"><path class="cls-3" d="M84.27,140.87s-.39-1.33-.92-2.68-2.48-2.52-5.64-2.52-5.65,1.47-5.65,4,2.62,4.2,5.5,4.89,10.12,1.63,10.12,1.63c13.94,1.89,21.18,8.54,21.18,16.92,0,10.93-15.3,18.29-32.73,18.29s-31.55-8.27-31.55-19.19l26.61.15a10.2,10.2,0,0,0,.27,2.9c.38,2,2.69,3.64,6.51,3.64s6.3-1.24,6.3-4.7-9.86-5.2-9.86-5.2l-16.49-4.23c-8.21-3.35-13.6-7.71-13.6-14,0-10.23,14.12-18.52,31.54-18.52s31.56,8.29,31.56,18.52Z" transform="translate(-44.32 -39.79)"/><path class="cls-3" d="M551.76,42.23V79.54c0,13.33-15.38,19.76-34.32,19.76s-34.31-6.43-34.31-19.76V42.23h25.5V76.85a8.82,8.82,0,1,0,17.63,0V42.23Z" transform="translate(-44.32 -39.79)"/></g><path class="cls-3" d="M81.68,54.44l6.55,19.77H75.34ZM64.55,42.22,44.32,97.39h25l3.43-7.46H91.11l2.37,7.46h27.08l-19.2-55.17Z" transform="translate(-44.32 -39.79)"/><polygon class="cls-3" points="78.87 57.6 78.87 2.43 110.16 2.43 126.45 30.15 126.45 2.43 148.02 2.43 148.02 57.6 116.99 57.6 100.69 30.15 100.69 57.6 78.87 57.6"/><path class="cls-3" d="M239.4,73.32l-6.54-19.76-6.35,19.76ZM195.5,97.39l20.24-55.17h36.81l19.19,55.17H244.67l-2.38-7.46h-18.4l-3.43,7.46Z" transform="translate(-44.32 -39.79)"/><g class="cls-2"><path class="cls-3" d="M300.13,84.25h6.7c7.63,0,13.8-6.8,13.8-15.33s-6.15-15.46-13.76-15.46h-6.74ZM274.37,97.39V42.23h42.36c15.54,0,28.1,12.35,28.1,27.56s-12.6,27.6-28.13,27.6Z" transform="translate(-44.32 -39.79)"/><path class="cls-3" d="M375.55,68.87c0,9,6,16.27,12,16.27s12-7.28,12-16.27-6-16.24-12-16.24-12,7.27-12,16.24m-24.95.9c0-16.55,15.87-30,36.92-30s36.94,13.43,36.94,30-15.88,30-36.94,30-36.92-13.42-36.92-30" transform="translate(-44.32 -39.79)"/></g><polygon class="cls-3" points="385.42 2.44 385.42 57.61 436.7 57.61 436.7 42.95 411.73 42.95 411.73 2.44 385.42 2.44"/><g class="cls-2"><path class="cls-3" d="M76.35,247.5H71.68L60.84,227.67l-7,9.14V247.5h-4.1V210.3h4.1v21.2c1.21-1.78,3-4.19,5.33-7.29L69.85,210.3h4.46l-10.74,14Z" transform="translate(-44.32 -39.79)"/><path class="cls-3" d="M101.89,247.49H98v-3.4a11.22,11.22,0,0,1-8.6,4,9.17,9.17,0,0,1-6-1.92c-1.86-1.56-2.78-3.9-2.78-7a7.93,7.93,0,0,1,3.25-6.79,11.76,11.76,0,0,1,7.28-2.13A14,14,0,0,1,98,231.81v-3.3q0-6.15-6-6.15a14.58,14.58,0,0,0-7.5,2.13L83,221.23A18.83,18.83,0,0,1,92.24,219q9.66,0,9.65,9.05ZM98,240.63V235a14.39,14.39,0,0,0-7.07-1.58c-4.3,0-6.45,1.81-6.45,5.47,0,4,1.88,6,5.61,6A9.25,9.25,0,0,0,98,240.63" transform="translate(-44.32 -39.79)"/></g><polygon class="cls-3" points="82.59 179.8 75.84 200.11 74.89 202.91 67.23 179.8 63.09 179.8 72.89 207.37 69.12 217.52 73.04 217.52 86.73 179.8 82.59 179.8"/><g class="cls-2"><path class="cls-3" d="M158.79,233.09q0,7.13-3,11.2a8.75,8.75,0,0,1-7.33,3.77,10,10,0,0,1-7.76-3.71v3.15h-3.93V211l3.93-2.21V223a11,11,0,0,1,8.29-4,8.27,8.27,0,0,1,6.95,3.36c1.93,2.49,2.9,6,2.9,10.73m-3.88,0c0-3.47-.62-6.11-1.84-7.91a5.81,5.81,0,0,0-5.14-2.76c-2.72,0-5.16,1.33-7.28,4v13.92a8.44,8.44,0,0,0,7.42,4.2q6.84,0,6.84-11.48" transform="translate(-44.32 -39.79)"/><path class="cls-3" d="M186.21,232.72a13,13,0,0,1-.17,2.18H167.69A12.91,12.91,0,0,0,170,242a6.53,6.53,0,0,0,5.4,2.6A13.65,13.65,0,0,0,183,242l1.82,2.87a22.35,22.35,0,0,1-4.6,2.4,15.21,15.21,0,0,1-5.24.83,9.68,9.68,0,0,1-7.44-3.23q-3.72-3.93-3.73-11.41,0-6.55,3.2-10.49a10.12,10.12,0,0,1,8.19-3.93,9.91,9.91,0,0,1,8.23,3.87q2.82,3.69,2.82,9.85m-3.68-1.07c-.35-6.13-2.82-9.18-7.44-9.18-4.46,0-6.93,3.05-7.4,9.18Z" transform="translate(-44.32 -39.79)"/><path class="cls-3" d="M204.62,222.93h-6.81v18.18a4.48,4.48,0,0,0,.57,2.61,2.74,2.74,0,0,0,2.19.74,9.67,9.67,0,0,0,3.88-.8l-.27,3.46a12.72,12.72,0,0,1-5.06.94c-3.51,0-5.24-2.09-5.24-6.31V222.93h-3.41v-3.34h3.41V211l3.93-2.24v10.84h6.81Z" transform="translate(-44.32 -39.79)"/><path class="cls-3" d="M247.4,247.5h-3.94V231.17c0-3.1-.48-5.35-1.47-6.68a5,5,0,0,0-4.45-2q-6.12,0-6.13,8.7V247.5h-3.94V231.17c0-5.8-2-8.7-5.92-8.7s-6.13,2.9-6.13,8.7V247.5h-3.93V219.59h3.93V223a7.65,7.65,0,0,1,7-4,7.89,7.89,0,0,1,7.55,4.79,9.27,9.27,0,0,1,8.33-4.79q9.12,0,9.12,11.49Z" transform="translate(-44.32 -39.79)"/><path class="cls-3" d="M276.13,232.72a14.26,14.26,0,0,1-.15,2.18H257.63a12.83,12.83,0,0,0,2.25,7.12,6.53,6.53,0,0,0,5.4,2.6,13.65,13.65,0,0,0,7.6-2.66l1.83,2.87a22.38,22.38,0,0,1-4.61,2.4,15.3,15.3,0,0,1-5.25.83,9.68,9.68,0,0,1-7.43-3.23q-3.72-3.93-3.71-11.41c0-4.37,1-7.86,3.18-10.49a10.12,10.12,0,0,1,8.18-3.93,9.91,9.91,0,0,1,8.24,3.87c1.87,2.46,2.82,5.74,2.82,9.85m-3.67-1.07c-.35-6.13-2.82-9.18-7.43-9.18s-6.95,3.05-7.4,9.18Z" transform="translate(-44.32 -39.79)"/></g><polygon class="cls-3" points="258.3 207.71 254.05 207.71 247.09 193.05 242.3 199.67 242.3 207.71 238.39 207.71 238.39 171.19 242.3 168.98 242.3 194.48 243.4 192.76 252.43 179.8 256.83 179.8 249.59 189.69 258.3 207.71"/><polygon class="cls-3" points="294.17 179.8 287.41 200.11 286.45 202.91 278.82 179.8 274.67 179.8 284.48 207.37 280.7 217.52 284.63 217.52 298.31 179.8 294.17 179.8"/><g class="cls-2"><path class="cls-3" d="M370.73,233.35q0,6.85-3.52,10.89a11.46,11.46,0,0,1-17,.11c-2.26-2.62-3.4-6.22-3.4-10.77s1.18-8.19,3.52-10.84a10.86,10.86,0,0,1,8.53-3.74,10.7,10.7,0,0,1,8.44,3.62q3.42,3.88,3.41,10.73m-3.92.11q0-5.37-2.21-8.18a7.42,7.42,0,0,0-11.63,0c-1.44,1.87-2.15,4.6-2.15,8.18s.71,6.34,2.15,8.29a7.33,7.33,0,0,0,11.63,0q2.2-2.92,2.21-8.29" transform="translate(-44.32 -39.79)"/></g><polygon class="cls-3" points="352.79 207.71 348.55 207.71 341.57 193.05 336.8 199.67 336.8 207.71 332.88 207.71 332.88 171.19 336.8 168.98 336.8 194.48 337.91 192.76 346.91 179.8 351.32 179.8 344.09 189.69 352.79 207.71"/><g class="cls-2"><path class="cls-3" d="M408.19,244.67a3.24,3.24,0,0,1-1,2.39,3.23,3.23,0,0,1-4.71,0,3.26,3.26,0,0,1-1-2.39,3.44,3.44,0,0,1,1-2.44,3.11,3.11,0,0,1,2.36-1.06,3,3,0,0,1,2.3,1.06,3.39,3.39,0,0,1,1.06,2.44" transform="translate(-44.32 -39.79)"/></g></svg>